# xmcd
#
# Track frame offsets:
# 150
# 14221
# 23610
# 38200
# 50397
# 62029
# 74173
# 86948
# 102224
# 119802
# 129282
# 141656
# 158520
# 168031
# 184118
# 198969
#
# Disc length: 2823 seconds
#
#
# Revision: 0
# Processed by: cddbd v1.5.1PL0 Copyright (c) Steve Scherf et al.
# Submitted via: FreeRIP 2.942 
#
DISCID=e70b0510
DTITLE=Gino and Geno - Classe A - Serie Ouro
DYEAR=1992
DGENRE=Sertaneja
TTITLE0=Aguas de São Francisco
TTITLE1=Morena Bonita
TTITLE2=Linda Ciganinha
TTITLE3=Menina Linda
TTITLE4=Amor de Um Lado Só
TTITLE5=Não Bebas Mais Não
TTITLE6=Equipe Boiadeiro
TTITLE7=O Jeito Do Meu Bem
TTITLE8=deus Papai Adeus Mamae
TTITLE9=Eu Disse Adeus
TTITLE10=Historia da Goteira
TTITLE11=Rumo a Goiania
TTITLE12=Estradeiro Feliz
TTITLE13=Vítima do Destino
TTITLE14=Decisão
TTITLE15=A Distancia
EXTD=
EXTT0=
EXTT1=
EXTT2=
EXTT3=
EXTT4=
EXTT5=
EXTT6=
EXTT7=
EXTT8=
EXTT9=
EXTT10=
EXTT11=
EXTT12=
EXTT13=
EXTT14=
EXTT15=
PLAYORDER=
